<mxfile host="app.diagrams.net" modified="2024-05-29T19:57:55.405Z" agent="Mozilla/5.0 (Windows NT 10.0; Win64; x64) AppleWebKit/537.36 (KHTML, like Gecko) Chrome/125.0.0.0 Safari/537.36" version="24.0.8" etag="jC8XbPNl7Nr4Ul2iJt4F" type="github">
  <diagram name="PÃ¡gina-1" id="QbjZbkHgFYW_4pTSv21R">
    <mxGraphModel>
      <root>
        <mxCell id="0" />
        <mxCell id="1" parent="0" />
      </root>
    </mxGraphModel>
  </diagram>
</mxfile>
